<svg width="75" height="93" viewBox="0 0 75 93" fill="none" xmlns="http://www.w3.org/2000/svg">
<path d="M6.3 19.1099C2.73 19.9499 0 23.3099 0 27.2999C0 31.2899 2.73 34.4399 6.3 35.4899L6.3 92.3999H10.5L10.5 35.4899C14.07 34.6499 16.8 31.2899 16.8 27.2999C16.8 23.3099 14.07 20.1599 10.5 19.1099L10.5 -0.000114441H6.3L6.3 19.1099ZM12.6 27.2999C12.6 29.6099 10.71 31.4999 8.4 31.4999C6.09 31.4999 4.2 29.6099 4.2 27.2999C4.2 24.9899 6.09 23.0999 8.4 23.0999C10.71 23.0999 12.6 24.9899 12.6 27.2999Z" fill="black"/>
<path d="M58 27.2999C58 31.2899 60.73 34.4399 64.3 35.4899L64.3 92.3999H68.5L68.5 35.4899C72.07 34.6499 74.8 31.2899 74.8 27.2999C74.8 23.3099 72.07 20.1599 68.5 19.1099V-0.000114441H64.3V19.1099C60.73 20.1599 58 23.3099 58 27.2999ZM70.6 27.2999C70.6 29.6099 68.71 31.4999 66.4 31.4999C64.09 31.4999 62.2 29.6099 62.2 27.2999C62.2 24.9899 64.09 23.0999 66.4 23.0999C68.71 23.0999 70.6 24.9899 70.6 27.2999Z" fill="black"/>
<path d="M29.1 65.0999C29.1 69.0899 31.83 72.2399 35.4 73.2899V92.3999H39.6V73.2899C43.17 72.4499 45.9 69.0899 45.9 65.0999C45.9 61.1099 43.17 57.9599 39.6 56.9099L39.6 -0.000114441H35.4L35.4 56.9099C31.83 57.9599 29.1 61.1099 29.1 65.0999ZM41.7 65.0999C41.7 67.4099 39.81 69.2999 37.5 69.2999C35.19 69.2999 33.3 67.4099 33.3 65.0999C33.3 62.7899 35.19 60.8999 37.5 60.8999C39.81 60.8999 41.7 62.7899 41.7 65.0999Z" fill="black"/>
</svg>
