<svg width="76" height="92" viewBox="0 0 76 92" fill="black" xmlns="http://www.w3.org/2000/svg">
<path fill-rule="evenodd" clip-rule="evenodd" d="M45.8995 72.0995V57.3984L12.693 23.8995H25.8995V19.8995H5.89949V39.8995H9.89949V26.7279L41.8995 58.7279V72.0995C37.335 73.0261 33.8995 77.0616 33.8995 81.8995C33.8995 87.4223 38.3767 91.8995 43.8995 91.8995C49.4223 91.8995 53.8995 87.4223 53.8995 81.8995C53.8995 77.0616 50.464 73.0261 45.8995 72.0995ZM9.89949 68.7279L2.82843 75.799L0 72.9706L7.07107 65.8995L0 58.8284L2.82843 56L9.89949 63.0711L16.9706 56L19.799 58.8284L12.7279 65.8995L19.799 72.9706L16.9706 75.799L9.89949 68.7279ZM65.8995 40.7279L58.8284 47.799L56 44.9706L63.0711 37.8995L56 30.8284L58.8284 28L65.8995 35.0711L72.9706 28L75.799 30.8284L68.7279 37.8995L75.799 44.9706L72.9706 47.799L65.8995 40.7279ZM45.8995 12.7279L38.8284 19.799L36 16.9706L43.0711 9.89949L36 2.82843L38.8284 0L45.8995 7.07107L52.9706 0L55.799 2.82843L48.7279 9.89949L55.799 16.9706L52.9706 19.799L45.8995 12.7279Z" />
</svg>
