<svg width="192" height="192" viewBox="0 0 192 192" xmlns="http://www.w3.org/2000/svg">
<style>
  path {
    fill: hsl(360 79% 32%);
  }
  rect {
    fill: hsl(0 0% 100%);
  }
</style>
<rect width="100%" height="100%"/>
<path d="M141.28 89.6C139.44 87.2 137.2 85.12 135.12 83.04C129.76 78.24 123.68 74.8 118.56 69.76C106.64 58.08 104 38.8 111.6 24C104 25.84 97.3599 30 91.6799 34.56C70.9599 51.2 62.7999 80.56 72.5599 105.76C72.8799 106.56 73.1999 107.36 73.1999 108.4C73.1999 110.16 71.9999 111.76 70.3999 112.4C68.5599 113.2 66.6399 112.72 65.1199 111.44C64.6399 111.04 64.3199 110.64 63.9999 110.08C54.9599 98.64 53.5199 82.24 59.5999 69.12C46.2399 80 38.9599 98.4 39.9999 115.76C40.4799 119.76 40.9599 123.76 42.3199 127.76C43.4399 132.56 45.5999 137.36 47.9999 141.6C56.6399 155.44 71.5999 165.36 87.6799 167.36C104.8 169.52 123.12 166.4 136.24 154.56C150.88 141.28 156 120 148.48 101.76L147.44 99.68C145.76 96 141.28 89.6 141.28 89.6ZM116 140C113.76 141.92 110.08 144 107.2 144.8C98.2399 148 89.2799 143.52 83.9999 138.24C93.5199 136 99.1999 128.96 100.88 121.84C102.24 115.44 99.6799 110.16 98.6399 104C97.6799 98.08 97.8399 93.04 99.9999 87.52C101.52 90.56 103.12 93.6 105.04 96C111.2 104 120.88 107.52 122.96 118.4C123.28 119.52 123.44 120.64 123.44 121.84C123.68 128.4 120.8 135.6 116 140Z"/>
</svg>
