<svg width="76" height="108" viewBox="0 0 76 108" fill="black" xmlns="http://www.w3.org/2000/svg">
<path fill-rule="evenodd" clip-rule="evenodd" d="M50 0H8.01104C3.58666 0 0 3.59335 0 8.02932V99.9707C0 104.405 3.5637 108 7.98969 108H68.0103C72.4229 108 76 104.407 76 100.037V30V28L52 0H50ZM48 4H7.98231C5.78294 4 4 5.82105 4 7.98183V100.018C4 102.217 5.81883 104 7.99984 104H68.0002C70.2092 104 72 102.22 72 100.026V32H55.9917C51.578 32 48 28.4538 48 23.9763V4ZM52 6V23.9649C52 26.1934 53.8026 28 55.987 28H70.7998L52 6ZM32 44V48H64V44H32ZM12 40V52H24V40H12ZM16 44V48H20V44H16ZM12 60V72H24V60H12ZM16 64V68H20V64H16ZM32 64V68H64V64H32ZM12 80V92H24V80H12ZM16 84V88H20V84H16ZM32 84V88H64V84H32Z" />
</svg>
